<?xml version="1.0" encoding="UTF-8"?>
<svg version="1.1" xmlns="http://www.w3.org/2000/svg" width="500" height="500">
<path d="M0 0 C1.61787456 1.36822258 3.19546809 2.78390912 4.76171875 4.2109375 C5.25800781 3.83582031 5.75429687 3.46070313 6.265625 3.07421875 C7.69209863 1.99962666 9.1220324 0.92961823 10.5546875 -0.13671875 C11.8810201 -1.12970758 13.1991103 -2.13406123 14.5 -3.16015625 C24.57176492 -10.87623391 36.31632176 -12.82617892 48.76171875 -11.7890625 C54.53356823 -10.45200563 59.63558412 -9.16288494 63.76171875 -4.7890625 C61.75026427 -2.69593994 59.72838475 -0.61490154 57.69921875 1.4609375 C57.13783203 2.04746094 56.57644531 2.63398438 55.99804688 3.23828125 C52.21012674 7.09113716 48.5693816 9.73667535 43.76171875 12.2109375 C42.296875 10.94140625 40.83203125 9.671875 39.3671875 8.40234375 C35.36095931 5.42935203 30.51149401 5.76361278 25.76171875 6.2109375 C20.40416779 8.13156898 17.30334659 11.12768182 14.76171875 16.2109375 C14.24058704 21.43934084 14.11898341 25.85130504 16.38671875 30.6484375 C20.48047486 35.06538488 23.60203018 37.43337201 29.69921875 37.7109375 C34.47591364 37.48108151 38.27008378 36.61694654 41.76171875 33.2109375 C42.76508541 31.36839999 42.76508541 31.36839999 43.57421875 29.3359375 C45.60804941 24.63649049 48.65591073 23.21148956 53.0390625 20.8359375 C60.54236964 16.35763654 66.70242516 9.45080606 72.76171875 3.2109375 C78.27106569 5.42419567 80.29365655 10.06049958 82.76171875 15.2109375 C86.05865488 24.4399074 88.07624411 36.0191226 83.76171875 45.2109375 C74.69858553 52.51055465 61.67891287 51.04502401 50.76171875 50.2109375 C45.38973898 49.40561706 40.11222931 48.26262987 34.83325195 46.98974609 C26.37559964 44.95596664 19.41230028 44.14571699 11.2109375 47.6875 C6.6226093 50.54148405 3.87368412 54.88660228 0.76171875 59.2109375 C-8.06834294 70.15653481 -8.06834294 70.15653481 -15.23828125 71.2109375 C-21.78666835 71.43674395 -21.78666835 71.43674395 -24.23828125 70.2109375 C-24.50640625 69.2621875 -24.77453125 68.3134375 -25.05078125 67.3359375 C-25.90467789 64.03840395 -25.90467789 64.03840395 -28.67578125 62.9609375 C-31.76950364 60.84815147 -31.72335432 60.0534342 -32.55078125 56.5234375 C-34.75529686 48.26848503 -40.430917 44.13176832 -47.50854492 39.90673828 C-56.61181398 34.62733305 -56.61181398 34.62733305 -66.86328125 33.0234375 C-67.96542969 33.03310547 -67.96542969 33.03310547 -69.08984375 33.04296875 C-71.23934309 33.21102052 -73.16695909 33.62515635 -75.23828125 34.2109375 C-76.00440367 22.71910127 -72.18392641 13.25764032 -65.23828125 4.2109375 C-64.62339844 3.37691406 -64.00851563 2.54289063 -63.375 1.68359375 C-46.71553327 -17.59509444 -18.11592529 -14.48009386 0 0 Z " fill="#8CC837" transform="translate(90.23828125,193.7890625)"/>
<path d="M0 0 C2.73891339 0.63575591 5.4611717 1.32233889 8.18505859 2.01953125 C19.37752419 4.69884777 29.91940286 5.05141155 41.37255859 4.51953125 C40.07239343 7.41584999 38.73745437 9.37147431 36.39599609 11.5078125 C35.81172852 12.04567383 35.22746094 12.58353516 34.62548828 13.13769531 C33.69591309 13.9763916 33.69591309 13.9763916 32.74755859 14.83203125 C32.11237305 15.41307617 31.4771875 15.99412109 30.82275391 16.59277344 C27.01943425 20.06182074 23.18227585 23.49028613 19.28662109 26.85546875 C15.2642596 30.35246058 11.32876293 33.9481249 7.37255859 37.51953125 C4.87567867 39.76750102 2.37802709 42.01461132 -0.11962891 44.26171875 C-1.81337035 45.78661369 -3.50605309 47.31268527 -5.19775391 48.83984375 C-7.67054295 51.07064732 -10.14798143 53.29614664 -12.62744141 55.51953125 C-13.35189453 56.17308594 -14.07634766 56.82664062 -14.82275391 57.5 C-18.59139813 60.86025502 -22.34399037 63.84237435 -26.62744141 66.51953125 C-28.08577474 65.20703125 -29.54410807 63.89453125 -31.00244141 62.58203125 C-31.91509766 61.76089844 -32.82775391 60.93976563 -33.76806641 60.09375 C-35.59203071 58.45168378 -37.41504722 56.80856373 -39.23681641 55.1640625 C-42.99080456 51.77731232 -46.74981761 48.39986803 -50.56494141 45.08203125 C-54.7827834 41.41285163 -58.89802158 37.63412111 -63.01416016 33.8515625 C-65.48639792 31.64539517 -68.02008281 29.56313664 -70.62744141 27.51953125 C-70.29744141 26.19953125 -69.96744141 24.87953125 -69.62744141 23.51953125 C-64.55958592 23.35337205 -60.14453496 23.54351046 -55.18994141 24.64453125 C-46.80008848 26.26875069 -39.55175248 24.16607508 -32.08447266 20.203125 C-26.42913919 16.32800779 -22.00279096 10.82187491 -18.31494141 5.08203125 C-13.69956181 -1.92650813 -7.62590147 -1.39451534 0 0 Z " fill="#1C97D0" transform="translate(121.62744140625,251.48046875)"/>
<path d="M0 0 C7.42013777 3.6343532 10.83920825 10.75166654 13.57495117 18.24023438 C17.33044287 29.42839238 19.94795582 41.38994901 15 52.6875 C10.16996887 60.68766424 2.61878648 64.3098456 -6.1875 66.55859375 C-20.32375564 68.77720054 -34.72245744 66.60033117 -48.375 62.8125 C-54.27116085 61.49094671 -59.56229887 60.67984238 -65.0078125 63.62890625 C-68.23205184 66.18388442 -70.43166115 68.97139295 -72.75 72.3125 C-77.53495839 78.87000535 -83.56497321 85.6665215 -92 87 C-112.99446642 87.89900738 -112.99446642 87.89900738 -120 84 C-120.226875 84.5775 -120.45375 85.155 -120.6875 85.75 C-122.56977831 88.97676282 -125.10331387 91.31879583 -128.6640625 92.59765625 C-139.75772075 94.50843685 -153.09710725 93.88287717 -163 88.3125 C-165.2959651 85.65779035 -166.68836423 83.00071047 -168.10546875 79.8046875 C-168.97197637 77.81501228 -168.97197637 77.81501228 -171 76 C-171.30078125 74.125 -171.30078125 74.125 -171.3125 72 C-171.32925781 71.29875 -171.34601563 70.5975 -171.36328125 69.875 C-171.24339844 69.25625 -171.12351563 68.6375 -171 68 C-167.53076119 65.68717413 -166.07794425 65.57521414 -162 66 C-160.125 67.0625 -160.125 67.0625 -159 69 C-158.6875 72.5625 -158.6875 72.5625 -159 76 C-159.99 76.99 -159.99 76.99 -161 78 C-161.23000198 80.52429495 -161.23000198 80.52429495 -160 83 C-152.45250479 87.8519612 -141.08624878 88.79297396 -132.375 87.5 C-127.51656342 86.24907364 -125.64131554 84.20959665 -123 80 C-120.82272687 75.95649275 -120.59998294 72.56019445 -121 68 C-123.25135483 60.79566455 -129.47081385 56.96724942 -135.7890625 53.4453125 C-141.03055266 50.88954457 -145.15780091 49.23797403 -151 50 C-152.3741663 51.16593462 -152.3741663 51.16593462 -152.375 54.375 C-153 58 -153 58 -154.125 59.9375 C-157.17468171 61.66565297 -159.58518389 61.42685201 -163 61 C-165.42061048 58.89172636 -165.9127007 57.59654522 -166.375 54.4375 C-166 52 -166 52 -164.875 50.3125 C-162.40735256 48.58514679 -159.86239074 47.91596504 -157 47 C-156.21625 46.46375 -155.4325 45.9275 -154.625 45.375 C-149.96640191 42.93478195 -146.11103984 43.3819162 -141.23828125 44.80859375 C-132.39324165 48.15005315 -122.48475036 53.4410945 -117.25 61.625 C-115.88326411 65.3151869 -115.6812663 68.09551215 -116 72 C-114.5459375 72.4640625 -114.5459375 72.4640625 -113.0625 72.9375 C-110 74 -110 74 -109 75 C-108.95936168 76.66617115 -108.957279 78.33388095 -109 80 C-103.72726671 82.72141073 -98.22298488 83.01503095 -92.59375 81.2421875 C-85.78705655 78.36068727 -81.21409092 74.6882249 -77 68.5625 C-69.10550611 57.47472768 -69.10550611 57.47472768 -62 56 C-54.74525273 55.48127107 -48.36910778 56.62405096 -41.375 58.4375 C-25.70717711 62.22746222 -10.92308951 64.27551688 3.86328125 56.4296875 C7.88055737 53.74171116 9.47886331 50.56341006 11 46 C12.22373873 32.3640541 9.3287622 20.6717324 2 9 C2 8.34 2 7.68 2 7 C-3.03537389 5.55862784 -3.03537389 5.55862784 -7.8203125 7.03515625 C-9.97945778 8.93726042 -11.98303063 10.94683705 -14 13 C-16.29139157 15.2309233 -18.60982326 17.43201033 -20.9375 19.625 C-21.84520142 20.48581177 -21.84520142 20.48581177 -22.77124023 21.36401367 C-26.68562959 25.0012594 -30.48535995 27.6311345 -35.3125 29.96484375 C-38.01572501 31.62307205 -38.76108075 34.16818457 -40 37 C-42.53718464 39.77882127 -44.43539214 41.70749836 -48.21484375 42.4140625 C-52.91863109 42.58624773 -56.26623228 42.07486753 -60 39 C-63.29003081 35.70996919 -63.84426891 32.59406717 -64 28 C-62.78602011 23.78677567 -61.59053156 21.54835074 -58.375 18.5625 C-54.06498399 16.56712222 -50.66282558 15.90286457 -46 17 C-43.26209101 18.64475119 -41.00680602 20.50923755 -39 23 C-39 23.66 -39 24.32 -39 25 C-34.6415957 22.98150598 -31.07676451 20.68025916 -27.375 17.625 C-26.45460937 16.87476563 -25.53421875 16.12453125 -24.5859375 15.3515625 C-21.95958298 13.09245251 -21.95958298 13.09245251 -19.984375 10.4453125 C-17.83950671 7.80222677 -15.68943232 6.14869165 -12.875 4.25 C-12.00617188 3.65703125 -11.13734375 3.0640625 -10.2421875 2.453125 C-6.55383432 0.0627637 -4.43940803 -0.42686616 0 0 Z " fill="#2995C2" transform="translate(171,186)"/>
<path d="M0 0 C2.25890202 1.47486564 3.83066822 2.74336769 5.046875 5.17578125 C5.086867 7.17538137 5.09034299 9.17625367 5.046875 11.17578125 C2.736875 11.17578125 0.426875 11.17578125 -1.953125 11.17578125 C-2.13875 10.53640625 -2.324375 9.89703125 -2.515625 9.23828125 C-3.89558556 6.75451912 -3.89558556 6.75451912 -7.578125 6.42578125 C-8.691875 6.34328125 -9.805625 6.26078125 -10.953125 6.17578125 C-10.86075426 8.11249791 -10.86075426 8.11249791 -9.953125 10.17578125 C-7.55559063 11.65176018 -7.55559063 11.65176018 -4.640625 12.73828125 C-1.03102561 14.20814482 2.14939981 15.52419272 5.046875 18.17578125 C6.10081897 21.96997953 6.41331033 24.2273604 4.984375 27.92578125 C2.17421664 31.18919096 -0.60083262 32.83303206 -4.91015625 33.4609375 C-9.62563619 33.66831042 -12.91136553 32.77405519 -16.953125 30.17578125 C-19.24326153 26.74057645 -19.13155473 25.19045025 -18.953125 21.17578125 C-16.643125 21.17578125 -14.333125 21.17578125 -11.953125 21.17578125 C-11.623125 22.49578125 -11.293125 23.81578125 -10.953125 25.17578125 C-8.313125 25.17578125 -5.673125 25.17578125 -2.953125 25.17578125 C-2.99881124 23.23152041 -2.99881124 23.23152041 -3.953125 21.17578125 C-6.62076377 19.73287863 -6.62076377 19.73287863 -9.828125 18.67578125 C-14.06696238 17.16409949 -16.71690689 16.19792099 -18.953125 12.17578125 C-19.48873562 7.96741209 -19.42086618 5.91771553 -17.140625 2.30078125 C-12.88129226 -1.83685626 -5.43305025 -2.2927472 0 0 Z " fill="#43B3F3" transform="translate(356.953125,235.82421875)"/>
<path d="M0 0 C2.31 0 4.62 0 7 0 C7 4.29 7 8.58 7 13 C10.3 13 13.6 13 17 13 C17 8.71 17 4.42 17 0 C19.31 0 21.62 0 24 0 C24 10.89 24 21.78 24 33 C21.69 33 19.38 33 17 33 C16.67 29.04 16.34 25.08 16 21 C13.03 20.67 10.06 20.34 7 20 C7 24.29 7 28.58 7 33 C4.69 33 2.38 33 0 33 C-0.95325167 29.78478721 -1.12884944 26.88252632 -1.1328125 23.53515625 C-1.13410156 22.48779297 -1.13539063 21.44042969 -1.13671875 20.36132812 C-1.13285156 19.27271484 -1.12898437 18.18410156 -1.125 17.0625 C-1.12886719 15.97775391 -1.13273438 14.89300781 -1.13671875 13.77539062 C-1.13542969 12.72673828 -1.13414062 11.67808594 -1.1328125 10.59765625 C-1.13168457 9.64383057 -1.13055664 8.69000488 -1.12939453 7.70727539 C-1.00201137 5.04208308 -0.59400046 2.59749852 0 0 Z " fill="#42B4F4" transform="translate(206,235)"/>
<path d="M0 0 C4.63906104 4.7611416 5.29285273 8.09502544 5.21875 14.5234375 C4.84644498 18.73846222 3.09047009 20.90952991 0.1875 23.8125 C-2.68992102 25.37452855 -4.77258885 25.28064445 -8 25 C-8.66 24.67 -9.32 24.34 -10 24 C-9.979375 25.299375 -9.95875 26.59875 -9.9375 27.9375 C-9.91600546 29.29165633 -9.92851801 30.64756083 -10 32 C-10.495 32.495 -10.495 32.495 -11 33 C-13.31 33 -15.62 33 -18 33 C-18 22.11 -18 11.22 -18 0 C-15.03 0 -12.06 0 -9 0 C-5.77839187 -1.61080407 -3.42436421 -0.82657067 0 0 Z M-8 6 C-10.15705515 7.7564331 -10.15705515 7.7564331 -10.265625 9.875 C-10.26046875 10.57625 -10.2553125 11.2775 -10.25 12 C-10.25515625 12.70125 -10.2603125 13.4025 -10.265625 14.125 C-10.15705515 16.2435669 -10.15705515 16.2435669 -8 18 C-5.21762345 17.59471099 -5.21762345 17.59471099 -3 16 C-2.66143172 10.67326964 -2.66143172 10.67326964 -5 6 C-5.99 6 -6.98 6 -8 6 Z " fill="#42B4F2" transform="translate(384,244)"/>
<path d="M0 0 C2.73790899 1.64475119 4.99319398 3.50923755 7 6 C7 6.66 7 7.32 7 8 C7.99 8 8.98 8 10 8 C10 8.99 10 9.98 10 11 C9.01 11.33 8.02 11.66 7 12 C6.95875 13.216875 6.9175 14.43375 6.875 15.6875 C6.40586403 19.25673715 5.95040708 20.05951151 3.5 23 C0.16726712 25.37708176 -2.87071027 25.60236039 -6.88671875 25.359375 C-10.77496016 24.69815835 -13.02126478 22.97873522 -15.75 20.25 C-17.51375407 17.07524268 -17.87694316 14.63017667 -18 11 C-16.78602011 6.78677567 -15.59053156 4.54835074 -12.375 1.5625 C-8.06498399 -0.43287778 -4.66282558 -1.09713543 0 0 Z " fill="#1F97CD" transform="translate(125,203)"/>
<path d="M0 0 C2.31 0 4.62 0 7 0 C9.04698414 2.04698414 8.70045693 6.30411241 9 9 C9.886875 8.773125 10.77375 8.54625 11.6875 8.3125 C15.64837707 7.93883235 16.93983313 8.53486558 20 11 C21.75810773 13.87109415 22.24310382 15.98273276 22.1953125 19.328125 C22.18886719 20.12734375 22.18242187 20.9265625 22.17578125 21.75 C22.15902344 22.575 22.14226562 23.4 22.125 24.25 C22.11597656 25.09046875 22.10695313 25.9309375 22.09765625 26.796875 C22.07415817 28.86470604 22.03828908 30.93238995 22 33 C19.36 33 16.72 33 14 33 C13.67 27.39 13.34 21.78 13 16 C11.68 16 10.36 16 9 16 C8.67 21.61 8.34 27.22 8 33 C5.36 33 2.72 33 0 33 C0 22.11 0 11.22 0 0 Z " fill="#3FB4F6" transform="translate(313,235)"/>
<path d="M0 0 C8.51016725 0.37822966 16.93241321 5.12814182 23 11 C25.32362864 14.7949921 25.13350671 17.44417831 24.55859375 21.73828125 C23.71936489 25.13627782 22.16582044 27.27525815 20 30 C11.37584538 26.24431976 3.31398268 17.52330447 -1.5 9.5 C-2.21025022 5.94874888 -1.18641298 3.36150344 0 0 Z " fill="#8CC63A" transform="translate(22,239)"/>
<path d="M0 0 C2.23034494 3.03326912 2.68768495 5.47540191 2.66015625 9.13671875 C2.65693359 9.89404297 2.65371094 10.65136719 2.65039062 11.43164062 C2.64201172 12.21732422 2.63363281 13.00300781 2.625 13.8125 C2.62048828 14.60978516 2.61597656 15.40707031 2.61132812 16.22851562 C2.5995585 18.19404257 2.58162348 20.15953085 2.5625 22.125 C1.93601562 22.11339844 1.30953125 22.10179687 0.6640625 22.08984375 C-0.56183594 22.07630859 -0.56183594 22.07630859 -1.8125 22.0625 C-3.03066406 22.04509766 -3.03066406 22.04509766 -4.2734375 22.02734375 C-6.48687142 21.98033666 -6.48687142 21.98033666 -8.4375 23.125 C-10.53125 23.07421875 -10.53125 23.07421875 -12.9375 22.8125 C-14.12859375 22.69455078 -14.12859375 22.69455078 -15.34375 22.57421875 C-17.4375 22.125 -17.4375 22.125 -19.4375 20.125 C-20.35935349 17.28261841 -20.49809918 15.4431457 -19.9375 12.5 C-17.73063204 9.0057924 -15.31494284 8.3528569 -11.4375 7.125 C-8 6.9375 -8 6.9375 -5.4375 7.125 C-5.7675 6.465 -6.0975 5.805 -6.4375 5.125 C-7.118125 5.29 -7.79875 5.455 -8.5 5.625 C-11.8539822 6.19589059 -15.04139805 6.19159023 -18.4375 6.125 C-18.7675 4.805 -19.0975 3.485 -19.4375 2.125 C-13.57197922 -2.92586512 -6.70219673 -5.15553595 0 0 Z M-12.4375 14.125 C-12.1075 15.115 -11.7775 16.105 -11.4375 17.125 C-9.7875 16.795 -8.1375 16.465 -6.4375 16.125 C-6.4375 14.805 -6.4375 13.485 -6.4375 12.125 C-9.62240007 11.8476499 -9.62240007 11.8476499 -12.4375 14.125 Z " fill="#46B4EF" transform="translate(278.4375,245.875)"/>
<path d="M0 0 C2.31 0 4.62 0 7 0 C7.33 2.97 7.66 5.94 8 9 C8.86625 8.773125 9.7325 8.54625 10.625 8.3125 C14.71829395 7.9334913 16.56040685 8.84025547 20 11 C21.20029908 13.40059817 21.11459743 14.89360649 21.09765625 17.5703125 C21.09443359 18.46621094 21.09121094 19.36210937 21.08789062 20.28515625 C21.07951172 21.22230469 21.07113281 22.15945313 21.0625 23.125 C21.05798828 24.06988281 21.05347656 25.01476562 21.04882812 25.98828125 C21.03702357 28.32558387 21.02055759 30.66276061 21 33 C18.69 33 16.38 33 14 33 C13.67 27.72 13.34 22.44 13 17 C11.68 16.67 10.36 16.34 9 16 C6.94077598 18.05922402 7.58572421 22.21708124 7.4375 25.0625 C7.39431641 25.82111328 7.35113281 26.57972656 7.30664062 27.36132812 C7.20026367 29.24065438 7.09960066 31.12030244 7 33 C4.69 33 2.38 33 0 33 C0 22.11 0 11.22 0 0 Z " fill="#43B3F3" transform="translate(392,235)"/>
<path d="M0 0 C3.70694475 3.23371776 5.16823733 5.46114141 5.875 10.3125 C5.91625 11.529375 5.9575 12.74625 6 14 C5 15 5 15 1.83984375 15.09765625 C0.55207031 15.08605469 -0.73570312 15.07445312 -2.0625 15.0625 C-3.35285156 15.05347656 -4.64320313 15.04445313 -5.97265625 15.03515625 C-6.97167969 15.02355469 -7.97070312 15.01195312 -9 15 C-8.67 15.66 -8.34 16.32 -8 17 C-4.4780279 17.08004482 -1.38018531 17.04005702 2 16 C2.99 17.32 3.98 18.64 5 20 C1.63800767 23.59385387 -0.32017482 24.84152593 -5.3125 25.3125 C-9.7020258 24.94050629 -11.64776343 23.80652364 -15 21 C-17.77455567 16.5739231 -17.51761826 12.06115636 -17 7 C-15.63354715 3.43203979 -14.43802799 2.30560092 -11.3125 0.125 C-7.1751666 -1.2801321 -4.13021157 -1.51271123 0 0 Z M-8 6 C-8.33 6.99 -8.66 7.98 -9 9 C-7.02 9 -5.04 9 -3 9 C-3.33 8.01 -3.66 7.02 -4 6 C-5.32 6 -6.64 6 -8 6 Z " fill="#3FB4F5" transform="translate(251,244)"/>
<path d="M0 0 C3.1786241 2.5699514 4.70728109 4.12184327 6 8 C6 10.31 6 12.62 6 15 C1.38 15.33 -3.24 15.66 -8 16 C-6.90410595 17.3263016 -6.90410595 17.3263016 -4.1875 17.0625 C-2.6096875 17.0315625 -2.6096875 17.0315625 -1 17 C3 17 3 17 5 18 C4.69611836 20.93752254 4.19330344 21.84080893 1.875 23.75 C-1.7098228 25.30861861 -4.12117952 25.41558791 -8 25 C-11.64950902 23.34113226 -14.08559854 21.5416427 -16 18 C-17.11860534 12.66511299 -17.40901683 9.04746384 -15 4 C-10.71613001 -1.11300611 -6.35227353 -1.83262472 0 0 Z M-7 6 C-7.99 7.485 -7.99 7.485 -9 9 C-6.69 9 -4.38 9 -2 9 C-2 8.34 -2 7.68 -2 7 C-3.65 6.67 -5.3 6.34 -7 6 Z " fill="#46B3F0" transform="translate(433,244)"/>
<path d="M0 0 C3.10096206 2.11129331 4.66090892 3.60569543 5.55859375 7.296875 C5.8507176 9.56173648 6.06603366 11.71712213 6 14 C4.12175109 15.87824891 0.96064724 15.39102397 -1.5625 15.5625 C-3.35880859 15.68818359 -3.35880859 15.68818359 -5.19140625 15.81640625 C-6.11824219 15.87699219 -7.04507812 15.93757813 -8 16 C-6.90410595 17.3263016 -6.90410595 17.3263016 -4.1875 17.0625 C-2.6096875 17.0315625 -2.6096875 17.0315625 -1 17 C0.32 17 1.64 17 3 17 C3.66 18.32 4.32 19.64 5 21 C1.73062785 23.55170509 -0.40417889 24.92682899 -4.5625 25.4375 C-9.10718697 24.8590853 -11.54257262 23.45742738 -14.75 20.25 C-17.35674091 15.55786636 -17.32831056 11.31123369 -15.9375 6.25 C-14.7197718 3.03563638 -14.09968025 2.07881694 -11.3125 -0.125 C-7.18473858 -1.21535207 -4.06882262 -1.33953008 0 0 Z M-7 6 C-7.99 7.485 -7.99 7.485 -9 9 C-6.69 9 -4.38 9 -2 9 C-2 8.34 -2 7.68 -2 7 C-3.65 6.67 -5.3 6.34 -7 6 Z " fill="#45B2F0" transform="translate(476,244)"/>
<path d="M0 0 C1.65 0 3.3 0 5 0 C5.2475 0.969375 5.495 1.93875 5.75 2.9375 C6.36875 4.4534375 6.36875 4.4534375 7 6 C9.03243548 6.96877057 9.03243548 6.96877057 11 7 C11 8.98 11 10.96 11 13 C9.35 13 7.7 13 6 13 C6.33 16.96 6.66 20.92 7 25 C8.32 25 9.64 25 11 25 C11 26.98 11 28.96 11 31 C9.37536158 31.05395478 7.75021459 31.09277195 6.125 31.125 C4.76761719 31.15980469 4.76761719 31.15980469 3.3828125 31.1953125 C1 31 1 31 -1 29 C-1.29065092 25.79180253 -1.41535418 22.62838251 -1.47851562 19.41015625 C-1.53849594 17.16573061 -1.53849594 17.16573061 -2 14 C-2.99 13.34 -3.98 12.68 -5 12 C-5.1875 9.375 -5.1875 9.375 -5 7 C-4.01 6.67 -3.02 6.34 -2 6 C-0.77479736 2.99152582 -0.77479736 2.99152582 0 0 Z " fill="#3AB6FB" transform="translate(299,237)"/>
<path d="M0 0 C2.31 0 4.62 0 7 0 C8.90849948 1.90849948 8.13059633 5.31478774 8.1328125 7.84375 C8.13376923 8.52804077 8.13472595 9.21233154 8.13571167 9.9173584 C8.1363933 11.36661877 8.13454023 12.81588218 8.13037109 14.26513672 C8.12502252 16.49062928 8.1303166 18.71592001 8.13671875 20.94140625 C8.13605797 22.34635461 8.1347768 23.75130285 8.1328125 25.15625 C8.13168457 26.44337891 8.13055664 27.73050781 8.12939453 29.05664062 C8 32 8 32 7 33 C4.69 33 2.38 33 0 33 C0 22.11 0 11.22 0 0 Z " fill="#3FB5F0" transform="translate(284,235)"/>
<path d="M0 0 C1.65 0 3.3 0 5 0 C6.88327072 3.22519642 7.32540577 5.85474978 7.5625 9.5625 C7.76883806 12.66599292 8.01136396 15.03409187 9 18 C10.98 18.33 12.96 18.66 15 19 C14.67 20.32 14.34 21.64 14 23 C11.69 23 9.38 23 7 23 C7.020625 24.299375 7.04125 25.59875 7.0625 26.9375 C7.08399454 28.29165633 7.07148199 29.64756083 7 31 C6 32 6 32 3.5 32.125 C1 32 1 32 0 31 C-0.08790975 28.70848583 -0.10694038 26.41427476 -0.09765625 24.12109375 C-0.0962413 23.4344313 -0.09482635 22.74776886 -0.09336853 22.04029846 C-0.08775479 19.83932199 -0.07520007 17.63844591 -0.0625 15.4375 C-0.05748676 13.94856917 -0.05292355 12.45963676 -0.04882812 10.97070312 C-0.03778093 7.31376925 -0.02050713 3.65689442 0 0 Z " fill="#3AB5F9" transform="translate(367,245)"/>
<path d="M0 0 C-0.33 2.31 -0.66 4.62 -1 7 C-2.98 7.66 -4.96 8.32 -7 9 C-7.33 13.95 -7.66 18.9 -8 24 C-10.64 24 -13.28 24 -16 24 C-16 16.08 -16 8.16 -16 0 C-13.03 0 -10.06 0 -7 0 C-4.3333581 -1.33332095 -2.83319697 -0.67102033 0 0 Z " fill="#3DB5F8" transform="translate(458,244)"/>
<path d="M0 0 C-0.33 0.99 -0.66 1.98 -1 3 C-2.65 3 -4.3 3 -6 3 C-6.10957031 3.68707031 -6.21914063 4.37414062 -6.33203125 5.08203125 C-6.49058594 5.98308594 -6.64914063 6.88414062 -6.8125 7.8125 C-6.96332031 8.70582031 -7.11414062 9.59914062 -7.26953125 10.51953125 C-8.07048384 13.23934354 -8.72670156 14.3368743 -11 16 C-14.5 16.4375 -14.5 16.4375 -18 16 C-20.42061048 13.89172636 -20.9127007 12.59654522 -21.375 9.4375 C-21 7 -21 7 -19.875 5.3125 C-17.40735256 3.58514679 -14.86239074 2.91596504 -12 2 C-11.195625 1.443125 -10.39125 0.88625 -9.5625 0.3125 C-6.07450722 -1.47403289 -3.74745835 -0.80827533 0 0 Z " fill="#2496CB" transform="translate(26,231)"/>
<path d="M0 0 C0.680625 0.07863281 1.36125 0.15726563 2.0625 0.23828125 C4 0.6875 4 0.6875 7 2.6875 C8.36928521 6.57915271 9 9.54593452 9 13.6875 C4.05 13.6875 -0.9 13.6875 -6 13.6875 C-5.67 12.6975 -5.34 11.7075 -5 10.6875 C-2.69 10.6875 -0.38 10.6875 2 10.6875 C2 9.6975 2 8.7075 2 7.6875 C0.56260487 7.66037934 -0.87493863 7.64104933 -2.3125 7.625 C-3.11300781 7.61339844 -3.91351563 7.60179687 -4.73828125 7.58984375 C-7.16861334 7.59092145 -7.16861334 7.59092145 -10 8.6875 C-10.33 9.3475 -10.66 10.0075 -11 10.6875 C-11.33074549 7.04929956 -11.48805542 5.3101914 -9.1875 2.375 C-6.04789596 -0.04698026 -3.82211435 -0.48500315 0 0 Z " fill="#3DB5F8" transform="translate(472,243.3125)"/>
<path d="M0 0 C-0.33 0.66 -0.66 1.32 -1 2 C-3.06640625 2.4140625 -3.06640625 2.4140625 -5.5625 2.625 C-6.38878906 2.69976562 -7.21507812 2.77453125 -8.06640625 2.8515625 C-9.02353516 2.92503906 -9.02353516 2.92503906 -10 3 C-10.33 4.65 -10.66 6.3 -11 8 C-7.535 7.505 -7.535 7.505 -4 7 C-3.67 5.68 -3.34 4.36 -3 3 C-0.525 3.495 -0.525 3.495 2 4 C2 5.98 2 7.96 2 10 C0.41058594 10.09087891 0.41058594 10.09087891 -1.2109375 10.18359375 C-2.59897221 10.26800127 -3.98699232 10.35264917 -5.375 10.4375 C-6.07367188 10.47681641 -6.77234375 10.51613281 -7.4921875 10.55664062 C-11.37360492 10.74280134 -11.37360492 10.74280134 -15 12 C-15.07347656 11.04287109 -15.07347656 11.04287109 -15.1484375 10.06640625 C-15.22320312 9.24011719 -15.29796875 8.41382813 -15.375 7.5625 C-15.44460938 6.73878906 -15.51421875 5.91507813 -15.5859375 5.06640625 C-15.72257812 4.38449219 -15.85921875 3.70257813 -16 3 C-16.66 2.67 -17.32 2.34 -18 2 C-16 -1 -16 -1 -14.375 -1.6875 C-9.34463637 -2.34938995 -4.40153489 -2.93435659 0 0 Z " fill="#39B6FB" transform="translate(435,247)"/>
<path d="M0 0 C2.31 0 4.62 0 7 0 C8 1 8 1 8.09765625 3.06640625 C8.08605469 3.89011719 8.07445312 4.71382812 8.0625 5.5625 C8.05347656 6.38878906 8.04445313 7.21507812 8.03515625 8.06640625 C8.02355469 8.70449219 8.01195312 9.34257812 8 10 C7.34 10 6.68 10 6 10 C6 7.36 6 4.72 6 2 C4.35 2.33 2.7 2.66 1 3 C1.0721875 4.17175781 1.144375 5.34351563 1.21875 6.55078125 C1.72582427 15.0417896 2.16871347 23.48934288 2 32 C3.32 32 4.64 32 6 32 C6 27.05 6 22.1 6 17 C6.66 17 7.32 17 8 17 C8 22.28 8 27.56 8 33 C5.36 33 2.72 33 0 33 C0 22.11 0 11.22 0 0 Z " fill="#55B0E0" transform="translate(313,235)"/>
<path d="M0 0 C0 0.99 0 1.98 0 3 C-2.3125 5 -2.3125 5 -5 7 C-6.0173873 7.98230498 -7.02596117 8.97469597 -8 10 C-6.68 10.99 -5.36 11.98 -4 13 C-5.88332031 12.82210937 -5.88332031 12.82210937 -7.8046875 12.640625 C-20.98545037 11.27621932 -20.98545037 11.27621932 -33 16 C-35.02339787 17.90737735 -36.42038432 19.68323033 -38 22 C-39.04976856 18.85069433 -39.31006596 17.95783781 -38 15 C-29.41202844 9.09868139 -19.91200921 9.43395887 -10 10 C-9.67 9.01 -9.34 8.02 -9 7 C-12.3 6.67 -15.6 6.34 -19 6 C-19 5.01 -19 4.02 -19 3 C-18.34 3.33 -17.68 3.66 -17 4 C-10.09810449 4.76968122 -5.69306773 3.96039495 0 0 Z " fill="#8EBE4E" transform="translate(132,227)"/>
<path d="M0 0 C2.31 0.33 4.62 0.66 7 1 C7 1.33 7 1.66 7 2 C5.02 2 3.04 2 1 2 C1 3.65 1 5.3 1 7 C1.66 7.33 2.32 7.66 3 8 C3 9.32 3 10.64 3 12 C5.31 12 7.62 12 10 12 C10 12.99 10 13.98 10 15 C10.66 15 11.32 15 12 15 C12 14.34 12 13.68 12 13 C12.66 13 13.32 13 14 13 C13.505 13.8353125 13.505 13.8353125 13 14.6875 C11.82427997 17.40635257 11.63298594 19.06388754 12 22 C13.39957197 24.28484306 13.39957197 24.28484306 15 26 C9.56804203 23.6790725 5.95617638 19.2527088 2 15 C1.49082031 14.46890625 0.98164063 13.9378125 0.45703125 13.390625 C-1.38000267 11.15859744 -2.04613417 9.5083147 -1.78515625 6.6328125 C-1.30209887 4.36914216 -0.72280187 2.1977084 0 0 Z " fill="#8DC838" transform="translate(22,239)"/>
<path d="M0 0 C3.1786241 2.5699514 4.70728109 4.12184327 6 8 C6 10.31 6 12.62 6 15 C1.05 15 -3.9 15 -9 15 C-8.67 14.34 -8.34 13.68 -8 13 C-4.04 13 -0.08 13 4 13 C3.67 11.02 3.34 9.04 3 7 C1.68 6.67 0.36 6.34 -1 6 C-1.33 7.65 -1.66 9.3 -2 11 C-4.31 11 -6.62 11 -9 11 C-9 10.34 -9 9.68 -9 9 C-6.69 9 -4.38 9 -2 9 C-2 8.34 -2 7.68 -2 7 C-5.62885324 6.84850702 -5.62885324 6.84850702 -9 8 C-8.67 7.01 -8.34 6.02 -8 5 C-3.545 4.505 -3.545 4.505 1 4 C-2.31371 1.79086 -3.3446021 1.77518447 -7.1875 1.875 C-8.53908203 1.90207031 -8.53908203 1.90207031 -9.91796875 1.9296875 C-10.94857422 1.96449219 -10.94857422 1.96449219 -12 2 C-9.74894958 -2.50210084 -4.14108451 -1.19469884 0 0 Z " fill="#50B0E5" transform="translate(433,244)"/>
<path d="M0 0 C0.33 0 0.66 0 1 0 C1 2.97 1 5.94 1 9 C1.66 9 2.32 9 3 9 C3.33 10.32 3.66 11.64 4 13 C5.32 13.33 6.64 13.66 8 14 C8 14.66 8 15.32 8 16 C8.99 15.67 9.98 15.34 11 15 C11 14.34 11 13.68 11 13 C10.01 12.67 9.02 12.34 8 12 C8.33 11.34 8.66 10.68 9 10 C10.36125 10.0309375 10.36125 10.0309375 11.75 10.0625 C14.42672588 10.0110245 16.46988052 9.7784983 19 9 C19.99 10.32 20.98 11.64 22 13 C18.63800767 16.59385387 16.67982518 17.84152593 11.6875 18.3125 C7.2979742 17.94050629 5.35223657 16.80652364 2 14 C-0.01149655 10.85745993 -0.22216795 8.44238198 -0.125 4.75 C-0.09792969 3.41195312 -0.09792969 3.41195312 -0.0703125 2.046875 C-0.04710937 1.37140625 -0.02390625 0.6959375 0 0 Z " fill="#3EB5F9" transform="translate(234,251)"/>
<path d="M0 0 C2.74391066 2.36544022 3.04636043 5.11487195 3.8125 8.5625 C5.4625 8.8925 7.1125 9.2225 8.8125 9.5625 C8.8125 9.8925 8.8125 10.2225 8.8125 10.5625 C2.8725 11.0575 2.8725 11.0575 -3.1875 11.5625 C-3.5175 10.9025 -3.8475 10.2425 -4.1875 9.5625 C-6.21213255 8.91036708 -6.21213255 8.91036708 -8.1875 8.5625 C-7.8575 6.2525 -7.5275 3.9425 -7.1875 1.5625 C-2.90178571 -0.58035714 -2.90178571 -0.58035714 0 0 Z " fill="#1D98D0" transform="translate(58.1875,260.4375)"/>
<path d="M0 0 C1.98 0.66 3.96 1.32 6 2 C6 5.767623 4.64002594 6.75068262 2.07617188 9.33398438 C1.53541016 9.86314453 0.99464844 10.39230469 0.4375 10.9375 C-0.33303711 11.72543945 -0.33303711 11.72543945 -1.11914062 12.52929688 C-4.77167211 16.15460452 -8.44102043 18.61415319 -13 21 C-13.99 19.68 -14.98 18.36 -16 17 C-15.01 16.67 -14.02 16.34 -13 16 C-10.83333333 15.16666667 -10.83333333 15.16666667 -10 13 C-9.34 12.67 -8.68 12.34 -8 12 C-8.33 11.01 -8.66 10.02 -9 9 C-5.67465243 7.89155081 -3.37817425 8.15545644 0 9 C0 7.68 0 6.36 0 5 C0.99 5 1.98 5 3 5 C3 4.01 3 3.02 3 2 C2.01 1.67 1.02 1.34 0 1 C0 0.67 0 0.34 0 0 Z " fill="#88C141" transform="translate(147,185)"/>
<path d="M0 0 C4.69371764 4.69371764 5.19749547 13.42532551 5.3125 19.8125 C5.14895029 24.17801908 4.88039623 27.99393846 3 32 C-1.62994201 35.72904197 -6.48358917 37.12992492 -12.32421875 37.09765625 C-13.35224609 37.09443359 -14.38027344 37.09121094 -15.43945312 37.08789062 C-16.51130859 37.07951172 -17.58316406 37.07113281 -18.6875 37.0625 C-19.77095703 37.05798828 -20.85441406 37.05347656 -21.97070312 37.04882812 C-24.64719085 37.03703743 -27.32356777 37.02058063 -30 37 C-30 36.67 -30 36.34 -30 36 C-29.43603516 35.98541748 -28.87207031 35.97083496 -28.29101562 35.95581055 C-25.69338054 35.88055146 -23.09692357 35.78415516 -20.5 35.6875 C-19.1696875 35.65366211 -19.1696875 35.65366211 -17.8125 35.61914062 C-11.3559916 35.35803183 -4.79528521 34.79528521 0 30 C3.0637112 25.05092807 3.29209024 21.64707788 3 16 C2.67 16 2.34 16 2 16 C1.93941406 15.28972656 1.87882812 14.57945312 1.81640625 13.84765625 C1.69072266 12.46900391 1.69072266 12.46900391 1.5625 11.0625 C1.48128906 10.14597656 1.40007812 9.22945312 1.31640625 8.28515625 C1.23955024 6.03840268 1.23955024 6.03840268 0 5 C-0.04063832 3.33382885 -0.042721 1.66611905 0 0 Z " fill="#8FBB56" transform="translate(171,207)"/>
<path d="M0 0 C1.65 0 3.3 0 5 0 C5.2475 0.969375 5.495 1.93875 5.75 2.9375 C6.36875 4.4534375 6.36875 4.4534375 7 6 C9.03243548 6.96877057 9.03243548 6.96877057 11 7 C11 8.98 11 10.96 11 13 C9.35 13 7.7 13 6 13 C6.33 16.96 6.66 20.92 7 25 C6.01 25 5.02 25 4 25 C3.97303635 23.20841511 3.95362083 21.41671527 3.9375 19.625 C3.92589844 18.62726563 3.91429687 17.62953125 3.90234375 16.6015625 C4 14 4 14 5 12 C5.66 12 6.32 12 7 12 C7 11.34 7 10.68 7 10 C7.66 10 8.32 10 9 10 C9 9.34 9 8.68 9 8 C7.68 8 6.36 8 5 8 C4.67 6.02 4.34 4.04 4 2 C1.7763932 3.9254644 1.7763932 3.9254644 1 7 C-0.65 7.33 -2.3 7.66 -4 8 C-4 8.99 -4 9.98 -4 11 C-3.01 11.33 -2.02 11.66 -1 12 C-1.99 12.33 -2.98 12.66 -4 13 C-5 12 -5 12 -5.0625 9.4375 C-5.041875 8.633125 -5.02125 7.82875 -5 7 C-4.01 6.67 -3.02 6.34 -2 6 C-0.77479736 2.99152582 -0.77479736 2.99152582 0 0 Z " fill="#4BB5EE" transform="translate(299,237)"/>
<path d="M0 0 C1.9375 1.5625 1.9375 1.5625 3 3 C2.67 3.66 2.34 4.32 2 5 C1.608125 4.505 1.21625 4.01 0.8125 3.5 C-1.55091715 1.54406857 -3.01435003 1.75792027 -6 2 C-5.67 3.32 -5.34 4.64 -5 6 C-6.65 6.66 -8.3 7.32 -10 8 C-11.4606285 5.35261084 -12 4.10551666 -12 1 C-13.65 1 -15.3 1 -17 1 C-16.67 11.56 -16.34 22.12 -16 33 C-16.66 33 -17.32 33 -18 33 C-18 22.11 -18 11.22 -18 0 C-15.03 0 -12.06 0 -9 0 C-5.85000502 -1.57499749 -3.36459118 -0.70833498 0 0 Z " fill="#51B3EB" transform="translate(384,244)"/>
<path d="M0 0 C0.66 0.33 1.32 0.66 2 1 C1.67 1.66 1.34 2.32 1 3 C1.66 3 2.32 3 3 3 C1.55607399 6.61371752 -0.1544543 8.04092014 -3.4375 10.0625 C-7.60929529 12.65354913 -10.26539886 14.89809828 -13 19 C-13 16.69 -13 14.38 -13 12 C-11.68 11.67 -10.36 11.34 -9 11 C-9 9.68 -9 8.36 -9 7 C-7.03125 5.078125 -7.03125 5.078125 -4.5 3.25 C-3.24703125 2.32960937 -3.24703125 2.32960937 -1.96875 1.390625 C-0.99421875 0.70226562 -0.99421875 0.70226562 0 0 Z " fill="#2999C4" transform="translate(144,203)"/>
<path d="M0 0 C0 1.32 0 2.64 0 4 C0.99 4.33 1.98 4.66 3 5 C3 9.95 3 14.9 3 20 C2.01 19.01 1.02 18.02 0 17 C0 16.01 0 15.02 0 14 C-1.32 13.67 -2.64 13.34 -4 13 C-3.34 13 -2.68 13 -2 13 C-2.309375 11.9275 -2.61875 10.855 -2.9375 9.75 C-3.66812096 7.17133778 -4.37482904 4.60487898 -5 2 C-2 0 -2 0 0 0 Z " fill="#37B7FD" transform="translate(276,245)"/>
<path d="M0 0 C-1.56583596 4.03721561 -4.44173865 6.47070582 -7.625 9.25 C-8.140625 9.70890625 -8.65625 10.1678125 -9.1875 10.640625 C-10.4534602 11.76592296 -11.72607942 12.88372177 -13 14 C-13.609375 12.12890625 -13.609375 12.12890625 -14 10 C-12.25 7.9375 -12.25 7.9375 -10 6 C-9.01 5.01 -8.02 4.02 -7 3 C-10.63 3 -14.26 3 -18 3 C-18.33 2.34 -18.66 1.68 -19 1 C-16.20837429 0.83262201 -13.41670379 0.66606598 -10.625 0.5 C-9.8309375 0.45230469 -9.036875 0.40460938 -8.21875 0.35546875 C-2.2265625 0 -2.2265625 0 0 0 Z " fill="#2793C8" transform="translate(163,256)"/>
<path d="M0 0 C9.9 0 19.8 0 30 0 C26.9923881 3.0076119 24.04526638 3.12605198 19.91796875 3.1328125 C18.76651367 3.13474609 18.76651367 3.13474609 17.59179688 3.13671875 C16.40166992 3.13091797 16.40166992 3.13091797 15.1875 3.125 C14.40568359 3.12886719 13.62386719 3.13273438 12.81835938 3.13671875 C8.10863263 3.12884953 3.64493824 2.78139148 -1 2 C-0.67 1.34 -0.34 0.68 0 0 Z " fill="#1D96CC" transform="translate(138,249)"/>
<path d="M0 0 C1.32 0.33 2.64 0.66 4 1 C4.33 4.3 4.66 7.6 5 11 C6.175625 11.1546875 6.175625 11.1546875 7.375 11.3125 C10 12 10 12 12 15 C12 16.65 12 18.3 12 20 C15.63 19.67 19.26 19.34 23 19 C23 18.34 23 17.68 23 17 C24.98 17 26.96 17 29 17 C26.44403516 20.12395702 23.87332971 21.03166757 20 22 C13.63636364 22.31818182 13.63636364 22.31818182 11 21 C10.731875 20.05125 10.46375 19.1025 10.1875 18.125 C9.33360336 14.82746645 9.33360336 14.82746645 6.5625 13.75 C2.92667192 11.26699546 2.62603492 8.42633594 1.578125 4.27734375 C1.08342814 1.98903424 1.08342814 1.98903424 0 0 Z " fill="#8CB953" transform="translate(55,243)"/>
<path d="M0 0 C0.33 0.66 0.66 1.32 1 2 C0.01 2.66 -0.98 3.32 -2 4 C-2.73606499 7.56769552 -2.73606499 7.56769552 -3 11 C-5.86724686 10.42655063 -6.8614515 10.1385485 -9 8 C-9.26991906 5.31160615 -9.08737357 2.70858064 -9 0 C-5.68955197 -1.10348268 -3.34493684 -0.99444068 0 0 Z " fill="#1F99D3" transform="translate(9,254)"/>
<path d="M0 0 C5.94 0.33 11.88 0.66 18 1 C18 1.33 18 1.66 18 2 C13.38 2.33 8.76 2.66 4 3 C7.65379829 3.60896638 10.89140173 4.13217255 14.5234375 4.31640625 C15.31621094 4.35830078 16.10898438 4.40019531 16.92578125 4.44335938 C17.73402344 4.48267578 18.54226562 4.52199219 19.375 4.5625 C20.62216797 4.62727539 20.62216797 4.62727539 21.89453125 4.69335938 C23.92953228 4.79861805 25.96474703 4.89973072 28 5 C28 5.33 28 5.66 28 6 C-1.21395107 6.85736596 -1.21395107 6.85736596 -10 1 C-6.7 1.33 -3.4 1.66 0 2 C0 1.34 0 0.68 0 0 Z " fill="#348FB5" transform="translate(134,247)"/>
<path d="M0 0 C2.16874252 0.50603992 3.99967627 0.99983813 6 2 C5.67 4.64 5.34 7.28 5 10 C1.04 9.67 -2.92 9.34 -7 9 C-7 8.34 -7 7.68 -7 7 C-5.35 7 -3.7 7 -2 7 C-1.855625 6.21625 -1.71125 5.4325 -1.5625 4.625 C-1 2 -1 2 0 0 Z " fill="#3BB6FB" transform="translate(250,248)"/>
<path d="M0 0 C7.1191234 -0.8089913 12.62116486 2.06720223 19 5 C18.01 5.33 17.02 5.66 16 6 C16 6.99 16 7.98 16 9 C15.43152344 8.79503906 14.86304688 8.59007812 14.27734375 8.37890625 C9.4915546 6.70907331 5.04056799 5.53623064 0 5 C0 4.67 0 4.34 0 4 C0.804375 3.87625 1.60875 3.7525 2.4375 3.625 C3.283125 3.41875 4.12875 3.2125 5 3 C5.33 2.34 5.66 1.68 6 1 C4.02 1 2.04 1 0 1 C0 0.67 0 0.34 0 0 Z " fill="#3392B9" transform="translate(20,230)"/>
<path d="M0 0 C-0.33 0.99 -0.66 1.98 -1 3 C-2.65 3 -4.3 3 -6 3 C-6.10957031 3.68707031 -6.21914063 4.37414062 -6.33203125 5.08203125 C-6.49058594 5.98308594 -6.64914063 6.88414062 -6.8125 7.8125 C-6.96332031 8.70582031 -7.11414063 9.59914062 -7.26953125 10.51953125 C-8.05395393 13.18321256 -8.88627799 14.25690322 -11 16 C-11.99 15.67 -12.98 15.34 -14 15 C-13.34 14.67 -12.68 14.34 -12 14 C-11.31270746 11.88153715 -11.31270746 11.88153715 -10.875 9.4375 C-10.70742187 8.61121094 -10.53984375 7.78492188 -10.3671875 6.93359375 C-10.24601563 6.29550781 -10.12484375 5.65742188 -10 5 C-10.99 4.34 -11.98 3.68 -13 3 C-8.30609874 -0.77801809 -5.8692391 -1.40861738 0 0 Z " fill="#2899C5" transform="translate(26,231)"/>
<path d="M0 0 C3.875 1.75 3.875 1.75 5 4 C5.06950541 5.54023996 5.08452357 7.08334988 5.0625 8.625 C5.05347656 9.44226563 5.04445313 10.25953125 5.03515625 11.1015625 C5.02355469 11.72804688 5.01195312 12.35453125 5 13 C3.02 13 1.04 13 -1 13 C-1.0272415 11.58344207 -1.04650467 10.16672955 -1.0625 8.75 C-1.07410156 7.96109375 -1.08570313 7.1721875 -1.09765625 6.359375 C-1.00385306 4.09308998 -0.63241063 2.1711105 0 0 Z " fill="#39B6FC" transform="translate(408,254)"/>
<path d="M0 0 C4.62 0.66 9.24 1.32 14 2 C14 2.66 14 3.32 14 4 C18.455 3.505 18.455 3.505 23 3 C19.30416159 6.69583841 15.03896536 6.16081056 10 6.1875 C8.1746875 6.20876953 8.1746875 6.20876953 6.3125 6.23046875 C3.2280437 6.01586625 1.57326124 5.62758774 -1 4 C0.65 3.67 2.3 3.34 4 3 C2.68 2.67 1.36 2.34 0 2 C0 1.34 0 0.68 0 0 Z " fill="#3593BB" transform="translate(62,267)"/>
<path d="M0 0 C3.875 2.625 3.875 2.625 5 6 C5.07973476 7.33525717 5.10771338 8.67412083 5.09765625 10.01171875 C5.09443359 10.76904297 5.09121094 11.52636719 5.08789062 12.30664062 C5.07951172 13.09232422 5.07113281 13.87800781 5.0625 14.6875 C5.05798828 15.48478516 5.05347656 16.28207031 5.04882812 17.10351562 C5.0370585 19.06904257 5.01912348 21.03453085 5 23 C2.69 22.67 0.38 22.34 -2 22 C-1.34 20.35 -0.68 18.7 0 17 C0.66 17.33 1.32 17.66 2 18 C2 13.71 2 9.42 2 5 C1.34 4.67 0.68 4.34 0 4 C0 2.68 0 1.36 0 0 Z " fill="#40B3F6" transform="translate(276,245)"/>
<path d="M0 0 C3.13107836 3.38583802 3.33550778 5.71109462 3.1875 10.25 C3.14689453 11.86648438 3.14689453 11.86648438 3.10546875 13.515625 C3.07066406 14.33546875 3.03585938 15.1553125 3 16 C0.03 15.505 0.03 15.505 -3 15 C-2.69163768 12.87439563 -2.37818386 10.74952935 -2.0625 8.625 C-1.88847656 7.44164062 -1.71445313 6.25828125 -1.53515625 5.0390625 C-1 2 -1 2 0 0 Z " fill="#36B8FD" transform="translate(208,251)"/>
<path d="M0 0 C0.33 0 0.66 0 1 0 C1.309375 1.093125 1.61875 2.18625 1.9375 3.3125 C2.58337897 5.55407994 3.2623117 7.7869351 4 10 C5.32 10 6.64 10 8 10 C7.67 8.02 7.34 6.04 7 4 C11.455 5.98 11.455 5.98 16 8 C12 10 12 10 10 10 C11.39195915 12.7839183 13.15575779 12.97898997 16 14 C15.67 14.66 15.34 15.32 15 16 C13.05679887 15.26489756 11.12058409 14.51130951 9.1875 13.75 C7.56908203 13.12351563 7.56908203 13.12351563 5.91796875 12.484375 C2.89498297 10.94657768 1.60923686 9.95026757 0 7 C-0.1875 3.25 -0.1875 3.25 0 0 Z " fill="#4FB0EB" transform="translate(338,241)"/>
<path d="M0 0 C0.763125 0.20625 1.52625 0.4125 2.3125 0.625 C1.9825 2.935 1.6525 5.245 1.3125 7.625 C-0.6675 8.285 -2.6475 8.945 -4.6875 9.625 C-5.0175 14.575 -5.3475 19.525 -5.6875 24.625 C-6.0175 24.625 -6.3475 24.625 -6.6875 24.625 C-7.0175 18.685 -7.3475 12.745 -7.6875 6.625 C-5.0475 6.295 -2.4075 5.965 0.3125 5.625 C0.3125 4.635 0.3125 3.645 0.3125 2.625 C-0.30625 2.83125 -0.925 3.0375 -1.5625 3.25 C-2.26375 3.37375 -2.965 3.4975 -3.6875 3.625 C-4.3475 2.965 -5.0075 2.305 -5.6875 1.625 C-2.6875 -0.375 -2.6875 -0.375 0 0 Z " fill="#4DADE6" transform="translate(455.6875,243.375)"/>
<path d="M0 0 C0.99 0.33 1.98 0.66 3 1 C3.33 1.99 3.66 2.98 4 4 C4.66 4.33 5.32 4.66 6 5 C6.33 4.34 6.66 3.68 7 3 C7.66 5.31 8.32 7.62 9 10 C8.34 9.67 7.68 9.34 7 9 C7 8.01 7 7.02 7 6 C6.34 6 5.68 6 5 6 C5.2165625 6.59683594 5.433125 7.19367188 5.65625 7.80859375 C8.47199437 16.58172321 8.28797579 24.90209825 8 34 C7.67 34 7.34 34 7 34 C6.98582031 33.09121094 6.97164062 32.18242187 6.95703125 31.24609375 C6.57940132 21.2950347 4.43238504 13.33469581 1 4 C0.641092 2.67332222 0.29320142 1.34272924 0 0 Z " fill="#3993B9" transform="translate(176,198)"/>
<path d="M0 0 C1.32 0.66 2.64 1.32 4 2 C-0.62 2 -5.24 2 -10 2 C-9.67 2.99 -9.34 3.98 -9 5 C-11.67478244 6.6627026 -13.9995144 7.99983813 -17 9 C-14.32642597 0.25012136 -8.36648671 -1.16994774 0 0 Z " fill="#318EBA" transform="translate(119,251)"/>
<path d="M0 0 C1.32 0.33 2.64 0.66 4 1 C4.33 3.97 4.66 6.94 5 10 C1 10 1 10 -0.8125 8.3125 C-2 6 -2 6 -1.75 3.3125 C-1 1 -1 1 0 0 Z " fill="#38B6FC" transform="translate(341,241)"/>
<path d="M0 0 C2.31 0 4.62 0 7 0 C7 4.95 7 9.9 7 15 C6.67 15 6.34 15 6 15 C6 10.38 6 5.76 6 1 C4.68 1 3.36 1 2 1 C2.185625 1.86625 2.37125 2.7325 2.5625 3.625 C3.00667933 7.05152628 2.71954492 9.64212371 2 13 C1.34 13 0.68 13 0 13 C0 8.71 0 4.42 0 0 Z " fill="#4BB4EF" transform="translate(223,235)"/>
<path d="M0 0 C0.66 0 1.32 0 2 0 C1.67 2.97 1.34 5.94 1 9 C1.66 9 2.32 9 3 9 C3 9.99 3 10.98 3 12 C3.66 12.33 4.32 12.66 5 13 C2.44931155 15.35448165 1.28982642 15.98327924 -2.25 16.1875 C-3.61125 16.0946875 -3.61125 16.0946875 -5 16 C-5 15.67 -5 15.34 -5 15 C-3.35 14.67 -1.7 14.34 0 14 C0.33 13.01 0.66 12.02 1 11 C-1.97 10.505 -1.97 10.505 -5 10 C-4.360625 9.649375 -3.72125 9.29875 -3.0625 8.9375 C-0.17836168 6.22815794 -0.2899178 3.84141089 0 0 Z " fill="#4EB2EA" transform="translate(381,253)"/>
<path d="M0 0 C1.65 0 3.3 0 5 0 C5.66 2.31 6.32 4.62 7 7 C6.01 6.67 5.02 6.34 4 6 C4 4.68 4 3.36 4 2 C1.7763932 3.9254644 1.7763932 3.9254644 1 7 C-0.65 7.33 -2.3 7.66 -4 8 C-4 8.99 -4 9.98 -4 11 C-3.01 11.33 -2.02 11.66 -1 12 C-1.99 12.33 -2.98 12.66 -4 13 C-5 12 -5 12 -5.0625 9.4375 C-5.041875 8.633125 -5.02125 7.82875 -5 7 C-4.01 6.67 -3.02 6.34 -2 6 C-0.77479736 2.99152582 -0.77479736 2.99152582 0 0 Z " fill="#55ADE3" transform="translate(299,237)"/>
<path d="M0 0 C-0.9075 0.391875 -1.815 0.78375 -2.75 1.1875 C-6.73155182 3.40798082 -8.96930008 5.93860016 -11 10 C-11.09657872 11.7895469 -11.12980468 13.58285534 -11.125 15.375 C-11.12757812 16.33148438 -11.13015625 17.28796875 -11.1328125 18.2734375 C-11.01551878 20.68140854 -10.68675951 22.69990068 -10 25 C-10.66 25 -11.32 25 -12 25 C-13.49368864 22.01262272 -13.18437999 18.96039093 -13.1875 15.6875 C-13.20167969 14.37136719 -13.21585937 13.05523437 -13.23046875 11.69921875 C-13.01503072 8.24125575 -12.62780234 6.02782347 -11 3 C-7.03303144 0.22312201 -4.68949776 -1.40684933 0 0 Z " fill="#86B650" transform="translate(116,200)"/>
<path d="M0 0 C1.98 0.66 3.96 1.32 6 2 C6 5 6 5 3.375 7.91796875 C2.25750594 9.01550756 1.13214357 10.10507895 0 11.1875 C-0.57234375 11.74630859 -1.1446875 12.30511719 -1.734375 12.88085938 C-3.14962788 14.26073093 -4.57397155 15.63126734 -6 17 C-6.66 16.67 -7.32 16.34 -8 16 C-7.525625 15.566875 -7.05125 15.13375 -6.5625 14.6875 C-4.76313043 12.97690387 -4.76313043 12.97690387 -4 10 C-3.01 9.67 -2.02 9.34 -1 9 C-0.26676204 6.98491642 -0.26676204 6.98491642 0 5 C0.99 5 1.98 5 3 5 C3 4.01 3 3.02 3 2 C2.01 1.67 1.02 1.34 0 1 C0 0.67 0 0.34 0 0 Z " fill="#83B554" transform="translate(147,185)"/>
<path d="M0 0 C0.99 0.33 1.98 0.66 3 1 C2.67 1.99 2.34 2.98 2 4 C3.32 4.66 4.64 5.32 6 6 C3.69 6.33 1.38 6.66 -1 7 C0.32 7.99 1.64 8.98 3 10 C-0.375 10.125 -0.375 10.125 -4 10 C-4.66 9.34 -5.32 8.68 -6 8 C-6 6.68 -6 5.36 -6 4 C-4.02 4 -2.04 4 0 4 C0 2.68 0 1.36 0 0 Z " fill="#49B1EC" transform="translate(265,258)"/>
<path d="M0 0 C0.33 0 0.66 0 1 0 C1 2.97 1 5.94 1 9 C1.66 9 2.32 9 3 9 C3.33 10.32 3.66 11.64 4 13 C5.32 13.33 6.64 13.66 8 14 C8 14.66 8 15.32 8 16 C11.3 16 14.6 16 18 16 C14.24543433 18.50304378 12.45254066 18.45280074 8 18 C3.99732045 15.88537684 1.62418574 14.23043726 0 10 C-0.1953125 7.421875 -0.1953125 7.421875 -0.125 4.75 C-0.09792969 3.41195312 -0.09792969 3.41195312 -0.0703125 2.046875 C-0.04710937 1.37140625 -0.02390625 0.6959375 0 0 Z " fill="#53B1E8" transform="translate(234,251)"/>
<path d="M0 0 C0.33 0 0.66 0 1 0 C0.58669586 5.99291003 -0.31903365 9.25036599 -4 14 C-5.32 13.34 -6.64 12.68 -8 12 C-8 11.34 -8 10.68 -8 10 C-7.34 10 -6.68 10 -6 10 C-5.67 8.68 -5.34 7.36 -5 6 C-3.68 6.33 -2.36 6.66 -1 7 C-1.020625 6.030625 -1.04125 5.06125 -1.0625 4.0625 C-1 1 -1 1 0 0 Z " fill="#88BC4D" transform="translate(46,255)"/>
<path d="M0 0 C1.32 0.33 2.64 0.66 4 1 C3.7525 1.5775 3.505 2.155 3.25 2.75 C2.71541574 5.15401623 2.71541574 5.15401623 4.6875 7.125 C6.74958896 8.79696402 8.57169245 9.95929677 11 11 C6.94393835 10.53199289 3.53411321 10.12046792 0 8 C-0.33 8.66 -0.66 9.32 -1 10 C-2.0625 8.1875 -2.0625 8.1875 -3 6 C-2.67 5.01 -2.34 4.02 -2 3 C-1.67 3.33 -1.34 3.66 -1 4 C-0.67 2.68 -0.34 1.36 0 0 Z " fill="#3092C1" transform="translate(7,262)"/>
<path d="M0 0 C0.66 0 1.32 0 2 0 C3.74834267 2.622514 4.51529754 3.99484478 5 7 C4.67 7.66 4.34 8.32 4 9 C3.34 9 2.68 9 2 9 C2 9.66 2 10.32 2 11 C3.65 11 5.3 11 7 11 C7 11.33 7 11.66 7 12 C4.69 12 2.38 12 0 12 C0 8.04 0 4.08 0 0 Z " fill="#49B2EF" transform="translate(223,256)"/>
<path d="M0 0 C2.97 0 5.94 0 9 0 C8.67 1.65 8.34 3.3 8 5 C5.03 5 2.06 5 -1 5 C-0.67 3.35 -0.34 1.7 0 0 Z " fill="#38B6FA" transform="translate(212,249)"/>
<path d="M0 0 C0.99 0.495 0.99 0.495 2 1 C3.99952758 1.04346799 6.00039988 1.039992 8 1 C9.32 1 10.64 1 12 1 C12.66 2.32 13.32 3.64 14 5 C9.48649253 8.52273754 6.71658336 9.45732667 1 9 C1 8.67 1 8.34 1 8 C2.98 8 4.96 8 7 8 C7 7.34 7 6.68 7 6 C8.65 5.67 10.3 5.34 12 5 C12 4.34 12 3.68 12 3 C8.37 3 4.74 3 1 3 C0.67 2.01 0.34 1.02 0 0 Z " fill="#51B0E4" transform="translate(467,260)"/>
<path d="M0 0 C0.33 0.99 0.66 1.98 1 3 C1.66 3 2.32 3 3 3 C3 3.66 3 4.32 3 5 C4.32 5.33 5.64 5.66 7 6 C7.33 8.31 7.66 10.62 8 13 C7.01 12.67 6.02 12.34 5 12 C5 11.01 5 10.02 5 9 C3.68 8.67 2.36 8.34 1 8 C0.34 5.69 -0.32 3.38 -1 1 C-0.67 0.67 -0.34 0.34 0 0 Z " fill="#2396CE" transform="translate(174,190)"/>
<path d="M0 0 C1.32 0.66 2.64 1.32 4 2 C2.92319498 3.13125022 1.83824365 4.25474919 0.75 5.375 C0.14671875 6.00148438 -0.4565625 6.62796875 -1.078125 7.2734375 C-2.9700588 8.97310161 -4.68201309 9.98459866 -7 11 C-7.99 10.01 -8.98 9.02 -10 8 C-8.02 8 -6.04 8 -4 8 C-4.0825 7.236875 -4.165 6.47375 -4.25 5.6875 C-4 3 -4 3 -2 1.1875 C-1.34 0.795625 -0.68 0.40375 0 0 Z " fill="#2A94C3" transform="translate(102,307)"/>
<path d="M0 0 C2.97 0 5.94 0 9 0 C9.33 0.99 9.66 1.98 10 3 C9 4 9 4 6.49609375 4.09765625 C4.98208984 4.08025391 4.98208984 4.08025391 3.4375 4.0625 C2.42558594 4.05347656 1.41367187 4.04445313 0.37109375 4.03515625 C-0.41136719 4.02355469 -1.19382812 4.01195312 -2 4 C-1.34 2.68 -0.68 1.36 0 0 Z " fill="#39B5FC" transform="translate(425,263)"/>
<path d="M0 0 C0.33 0.99 0.66 1.98 1 3 C0.44570312 3.45890625 -0.10859375 3.9178125 -0.6796875 4.390625 C-1.76636719 5.31101563 -1.76636719 5.31101563 -2.875 6.25 C-3.59429687 6.85328125 -4.31359375 7.4565625 -5.0546875 8.078125 C-7.09238745 9.87103069 -7.09238745 9.87103069 -8.03125 12.1875 C-8.3509375 12.785625 -8.670625 13.38375 -9 14 C-12.625 14.75 -12.625 14.75 -16 15 C-12.45256568 11.34170836 -8.73084843 7.97088523 -4.8671875 4.6484375 C-3.17596537 3.15535018 -1.57501175 1.61414247 0 0 Z " fill="#89BE4C" transform="translate(158,202)"/>
<path d="M0 0 C0.66 0.33 1.32 0.66 2 1 C1.01 1.33 0.02 1.66 -1 2 C-1 2.66 -1 3.32 -1 4 C0.32 4.33 1.64 4.66 3 5 C-0.82320557 6.42258812 -3.91281305 7.24042276 -8 7 C-6.68 6.34 -5.36 5.68 -4 5 C-6.97 4.67 -9.94 4.34 -13 4 C-13 3.67 -13 3.34 -13 3 C-12.31292969 2.86722656 -11.62585938 2.73445312 -10.91796875 2.59765625 C-9.56638672 2.33275391 -9.56638672 2.33275391 -8.1875 2.0625 C-6.84751953 1.80146484 -6.84751953 1.80146484 -5.48046875 1.53515625 C-2.88602829 1.02258847 -2.88602829 1.02258847 0 0 Z " fill="#3090B8" transform="translate(170,245)"/>
<path d="M0 0 C2.5 2.0625 2.5 2.0625 4 4 C3.67 4.66 3.34 5.32 3 6 C2.525625 5.360625 2.05125 4.72125 1.5625 4.0625 C-2.05420035 1.15149728 -5.47204894 1.19350218 -10 1 C-10.66 2.32 -11.32 3.64 -12 5 C-12.99 4.67 -13.98 4.34 -15 4 C-10.37547446 -0.94345833 -6.58413374 -1.77519904 0 0 Z " fill="#53B1E3" transform="translate(251,244)"/>
<path d="M0 0 C0 0.33 0 0.66 0 1 C-1.65 1.33 -3.3 1.66 -5 2 C-4.67 2.66 -4.34 3.32 -4 4 C-8.29 3.67 -12.58 3.34 -17 3 C-16 1 -16 1 -14.1796875 0.33203125 C-9.05008607 -0.82430263 -5.15147249 -1.09605798 0 0 Z " fill="#2C8FB7" transform="translate(127,244)"/>
<path d="M0 0 C1.98 0.495 1.98 0.495 4 1 C4.125 7.75 4.125 7.75 3 10 C2.34 10 1.68 10 1 10 C1 9.01 1 8.02 1 7 C0.34 7 -0.32 7 -1 7 C-0.67 4.69 -0.34 2.38 0 0 Z " fill="#37B6FC" transform="translate(383,255)"/>
<path d="M0 0 C2.31 0.33 4.62 0.66 7 1 C7 1.33 7 1.66 7 2 C5.02 2 3.04 2 1 2 C1 3.65 1 5.3 1 7 C1.66 7.33 2.32 7.66 3 8 C3 9.65 3 11.3 3 13 C0 12 0 12 -1.3125 9.875 C-2.22033642 6.07859315 -1.28013032 3.62703591 0 0 Z " fill="#8DBB51" transform="translate(22,239)"/>
<path d="M0 0 C0 1.98 0 3.96 0 6 C-2.97 6 -5.94 6 -9 6 C-8.01 5.34 -7.02 4.68 -6 4 C-6 3.01 -6 2.02 -6 1 C-4 0 -4 0 0 0 Z " fill="#45B4EF" transform="translate(310,262)"/>
<path d="M0 0 C1.32 0 2.64 0 4 0 C4 2.31 4 4.62 4 7 C2.02 7 0.04 7 -2 7 C-1.125 1.125 -1.125 1.125 0 0 Z " fill="#32BEFC" transform="translate(207,237)"/>
<path d="M0 0 C-1.39332574 3.36720387 -2.9789286 4.9859524 -6 7 C-6 5.68 -6 4.36 -6 3 C-10.29 2.67 -14.58 2.34 -19 2 C-19 1.67 -19 1.34 -19 1 C-16.20837429 0.83262201 -13.41670379 0.66606598 -10.625 0.5 C-9.8309375 0.45230469 -9.036875 0.40460938 -8.21875 0.35546875 C-2.2265625 0 -2.2265625 0 0 0 Z " fill="#3696BB" transform="translate(163,256)"/>
<path d="M0 0 C1.216875 0.185625 2.43375 0.37125 3.6875 0.5625 C7.02977939 0.98993182 9.71968417 0.92258883 13 0 C13.33 0.99 13.66 1.98 14 3 C9.05 3 4.1 3 -1 3 C-0.67 2.01 -0.34 1.02 0 0 Z " fill="#34B6FD" transform="translate(467,254)"/>
<path d="M0 0 C3.3 0 6.6 0 10 0 C10.33 0.66 10.66 1.32 11 2 C10.38511719 2.13277344 9.77023438 2.26554688 9.13671875 2.40234375 C7.92435547 2.66724609 7.92435547 2.66724609 6.6875 2.9375 C5.48673828 3.19853516 5.48673828 3.19853516 4.26171875 3.46484375 C1.854599 3.99886159 1.854599 3.99886159 -1 5 C-0.67 3.35 -0.34 1.7 0 0 Z " fill="#269FC2" transform="translate(109,242)"/>
<path d="M0 0 C1.32 0 2.64 0 4 0 C4 0.66 4 1.32 4 2 C4.99 2 5.98 2 7 2 C7 3.65 7 5.3 7 7 C6.01 7 5.02 7 4 7 C4 6.34 4 5.68 4 5 C2.68 4.67 1.36 4.34 0 4 C0 2.68 0 1.36 0 0 Z " fill="#38B7FC" transform="translate(354,238)"/>
<path d="M0 0 C0.86882812 -0.00515625 1.73765625 -0.0103125 2.6328125 -0.015625 C4.875 0.25 4.875 0.25 6.875 2.25 C3.22891538 2.84527912 -0.11160503 3.25045407 -3.8125 3.125 C-7.396319 3.26023845 -8.58555413 3.81213196 -11.125 6.25 C-10.17775677 3.88189193 -9.54957375 2.5198402 -7.3671875 1.1328125 C-4.77129982 0.11073826 -2.78331683 -0.01661682 0 0 Z " fill="#4FAFE3" transform="translate(350.125,234.75)"/>
<path d="M0 0 C3 1 3 1 4 3 C4.99 3.33 5.98 3.66 7 4 C7 4.66 7 5.32 7 6 C8.32 6.33 9.64 6.66 11 7 C11 7.66 11 8.32 11 9 C6.0276578 7.50829734 1.58154261 5.39542583 -3 3 C-2.01 2.67 -1.02 2.34 0 2 C0 1.34 0 0.68 0 0 Z " fill="#90C04F" transform="translate(34,225)"/>
<path d="M0 0 C0.66 0.33 1.32 0.66 2 1 C1.67 1.66 1.34 2.32 1 3 C1.66 3 2.32 3 3 3 C1.54744301 6.82946843 -0.42895561 8.12050295 -4 10 C-4 9.34 -4 8.68 -4 8 C-3.34 8 -2.68 8 -2 8 C-2 7.01 -2 6.02 -2 5 C-2.66 4.67 -3.32 4.34 -4 4 C-2.68 2.68 -1.36 1.36 0 0 Z " fill="#3695BA" transform="translate(144,203)"/>
<path d="M0 0 C5.14030834 0.07473792 7.23227666 1.82957862 10.75 5.4375 C7.75 5.4375 7.75 5.4375 4.75 4.4375 C4.75 3.7775 4.75 3.1175 4.75 2.4375 C1.12 2.4375 -2.51 2.4375 -6.25 2.4375 C-3.89048821 0.07798821 -3.23074365 0.09340585 0 0 Z " fill="#3194B8" transform="translate(120.25,202.5625)"/>
<path d="M0 0 C3.875 2.625 3.875 2.625 5 6 C5.07973476 7.33525717 5.10771338 8.67412083 5.09765625 10.01171875 C5.09443359 10.76904297 5.09121094 11.52636719 5.08789062 12.30664062 C5.07951172 13.09232422 5.07113281 13.87800781 5.0625 14.6875 C5.05798828 15.48478516 5.05347656 16.28207031 5.04882812 17.10351562 C5.0370585 19.06904257 5.01912348 21.03453085 5 23 C4.67 23 4.34 23 4 23 C3.96261719 21.87980469 3.92523438 20.75960938 3.88671875 19.60546875 C3.82105743 18.1327791 3.75461014 16.66012434 3.6875 15.1875 C3.66494141 14.44951172 3.64238281 13.71152344 3.61914062 12.95117188 C3.51038025 8.74638761 3.51038025 8.74638761 1.45703125 5.23828125 C0.97621094 4.82964844 0.49539063 4.42101562 0 4 C0 2.68 0 1.36 0 0 Z " fill="#5CACD9" transform="translate(276,245)"/>
<path d="M0 0 C3.16115776 1.36983503 3.9927092 1.9890638 6 5 C4.68 5 3.36 5 2 5 C1.34 5.66 0.68 6.32 0 7 C-0.99 6.67 -1.98 6.34 -3 6 C-3 5.01 -3 4.02 -3 3 C-2.01 3 -1.02 3 0 3 C0 2.01 0 1.02 0 0 Z " fill="#8BBF44" transform="translate(105,225)"/>
<path d="M0 0 C-0.33 1.32 -0.66 2.64 -1 4 C-1.99 4 -2.98 4 -4 4 C-4 3.01 -4 2.02 -4 1 C-6.64 1 -9.28 1 -12 1 C-12 0.67 -12 0.34 -12 0 C-7.224647 -1.68541871 -4.55270882 -2.48329572 0 0 Z " fill="#4AB1E9" transform="translate(438,262)"/>
<path d="M0 0 C0.99 0 1.98 0 3 0 C4 1.33333333 5 2.66666667 6 4 C6.99 4 7.98 4 9 4 C9.28875 4.763125 9.5775 5.52625 9.875 6.3125 C10.96269013 9.15029308 10.96269013 9.15029308 13 12 C9.34435261 10.46563424 7.01301377 8.25017578 4.25 5.4375 C3.45078125 4.63183594 2.6515625 3.82617188 1.828125 2.99609375 C0 1 0 1 0 0 Z " fill="#91BB50" transform="translate(24,253)"/>
<path d="M0 0 C2.38564077 0.57584432 4.66682784 1.22227595 7 2 C7 2.66 7 3.32 7 4 C7.99 4 8.98 4 10 4 C10.33 2.68 10.66 1.36 11 0 C11 1.98 11 3.96 11 6 C8.69 6 6.38 6 4 6 C3.71125 5.38125 3.4225 4.7625 3.125 4.125 C2.06279958 1.86674235 2.06279958 1.86674235 0 0 Z " fill="#54B1E7" transform="translate(351,241)"/>
<path d="M0 0 C5.70709064 0.46588495 9.15939723 1.93757784 14 5 C14 5.33 14 5.66 14 6 C11.69 6 9.38 6 7 6 C7 5.01 7 4.02 7 3 C5.68 3 4.36 3 3 3 C3 2.34 3 1.68 3 1 C2.01 0.67 1.02 0.34 0 0 Z " fill="#91C24D" transform="translate(70,184)"/>
<path d="M0 0 C0.33 0 0.66 0 1 0 C1 1.65 1 3.3 1 5 C1.99 4.67 2.98 4.34 4 4 C2.92598892 6.91517292 2.22189824 8.77810176 0 11 C-0.33 10.01 -0.66 9.02 -1 8 C-1.66 8 -2.32 8 -3 8 C-2.690625 7.236875 -2.38125 6.47375 -2.0625 5.6875 C-1.32106407 3.81210323 -0.63771783 1.91315348 0 0 Z " fill="#3392BC" transform="translate(182,232)"/>
<path d="M0 0 C-3.14573677 2.09715785 -5.01456251 2.52004559 -8.6875 3.125 C-10.17830078 3.37636719 -10.17830078 3.37636719 -11.69921875 3.6328125 C-12.45847656 3.75398437 -13.21773437 3.87515625 -14 4 C-14.33 3.01 -14.66 2.02 -15 1 C-9.94997778 -0.03590199 -5.12583611 -0.10251672 0 0 Z " fill="#91C246" transform="translate(64,182)"/>
<path d="M0 0 C0 0.33 0 0.66 0 1 C-1.98 1 -3.96 1 -6 1 C-5.67 2.65 -5.34 4.3 -5 6 C-6.32 6 -7.64 6 -9 6 C-9 4.02 -9 2.04 -9 0 C-5.93109813 -1.53445094 -3.29905734 -0.54984289 0 0 Z " fill="#4BB3EA" transform="translate(331,244)"/>
<path d="M0 0 C0.99 0 1.98 0 3 0 C3 2.97 3 5.94 3 9 C2.01 9 1.02 9 0 9 C-0.84454356 5.62182575 -1.10844919 3.32534757 0 0 Z " fill="#34B8FB" transform="translate(358,255)"/>
<path d="M0 0 C-1.625 2 -1.625 2 -4 4 C-7.25 4.25 -7.25 4.25 -10 4 C-10 4.99 -10 5.98 -10 7 C-10.66 7 -11.32 7 -12 7 C-11.875 5.1875 -11.875 5.1875 -11 3 C-7.25241255 0.61517162 -4.43651689 -0.39145737 0 0 Z " fill="#4DB0E2" transform="translate(473,243)"/>
<path d="M0 0 C3.3125 0.125 3.3125 0.125 7 1 C9 3.9375 9 3.9375 10 7 C9.67 7.66 9.34 8.32 9 9 C7.49704815 7.69088122 5.99770689 6.37761608 4.5 5.0625 C3.6646875 4.33160156 2.829375 3.60070312 1.96875 2.84765625 C1.3190625 2.23792969 0.669375 1.62820312 0 1 C0 0.67 0 0.34 0 0 Z " fill="#90BB52" transform="translate(45,234)"/>
<path d="M0 0 C2.0625 0.4375 2.0625 0.4375 4 1 C2.25 5.875 2.25 5.875 0 7 C-0.66 6.67 -1.32 6.34 -2 6 C-1.125 1.125 -1.125 1.125 0 0 Z " fill="#22A2CD" transform="translate(147,200)"/>
<path d="M0 0 C3.3 0 6.6 0 10 0 C9.67 0.99 9.34 1.98 9 3 C6.03 2.67 3.06 2.34 0 2 C0 1.34 0 0.68 0 0 Z " fill="#1C97CD" transform="translate(26,275)"/>
<path d="M0 0 C0 1.98 0 3.96 0 6 C-2.31 6 -4.62 6 -7 6 C-6.67 5.34 -6.34 4.68 -6 4 C-5.34 4 -4.68 4 -4 4 C-4 3.01 -4 2.02 -4 1 C-1 0 -1 0 0 0 Z " fill="#39B5FB" transform="translate(265,256)"/>
<path d="M0 0 C0 0.99 0 1.98 0 3 C-2.97 3.66 -5.94 4.32 -9 5 C-6.40100021 -0.19799959 -5.44050551 -0.1431712 0 0 Z " fill="#39B4FC" transform="translate(270,246)"/>
<path d="M0 0 C0.33 0.99 0.66 1.98 1 3 C-0.24891614 3.48198463 -1.49918808 3.96045677 -2.75 4.4375 C-3.79414062 4.83775391 -3.79414062 4.83775391 -4.859375 5.24609375 C-6.89059003 5.96146693 -8.9035291 6.51365652 -11 7 C-4.36842105 0 -4.36842105 0 0 0 Z " fill="#93C04C" transform="translate(42,186)"/>
<path d="M0 0 C0.33 0 0.66 0 1 0 C1.36923077 6.52307692 1.36923077 6.52307692 -0.5 8.9375 C-0.995 9.288125 -1.49 9.63875 -2 10 C-2.99 9.67 -3.98 9.34 -5 9 C-4.34 8.67 -3.68 8.34 -3 8 C-2.29508733 5.67793475 -1.62787571 3.34406932 -1 1 C-0.67 0.67 -0.34 0.34 0 0 Z " fill="#3297B9" transform="translate(17,237)"/>
<path d="M0 0 C1.9375 0.25 1.9375 0.25 4 1 C4.66 1.99 5.32 2.98 6 4 C5.34 4.66 4.68 5.32 4 6 C3.67 5.01 3.34 4.02 3 3 C-0.63 3 -4.26 3 -8 3 C-7.67 2.34 -7.34 1.68 -7 1 C-5.5459375 1.0309375 -5.5459375 1.0309375 -4.0625 1.0625 C-1.12534105 1.35618499 -1.12534105 1.35618499 0 0 Z " fill="#51AEE1" transform="translate(250,260)"/>
<path d="M0 0 C0.33 0 0.66 0 1 0 C1 3.63 1 7.26 1 11 C1.66 11.33 2.32 11.66 3 12 C1.68 12.33 0.36 12.66 -1 13 C-1.0272415 11.58344207 -1.04650467 10.16672955 -1.0625 8.75 C-1.07410156 7.96109375 -1.08570313 7.1721875 -1.09765625 6.359375 C-1.00385306 4.09308998 -0.63241063 2.1711105 0 0 Z " fill="#93BB5B" transform="translate(16,215)"/>
<path d="M0 0 C0.66 0.66 1.32 1.32 2 2 C1.67 2.99 1.34 3.98 1 5 C-0.65 5.33 -2.3 5.66 -4 6 C-4 6.99 -4 7.98 -4 9 C-3.01 9.33 -2.02 9.66 -1 10 C-1.99 10.33 -2.98 10.66 -4 11 C-5 10 -5 10 -5.0625 7.4375 C-5.041875 6.633125 -5.02125 5.82875 -5 5 C-4.360625 4.731875 -3.72125 4.46375 -3.0625 4.1875 C-0.66868314 3.11332248 -0.66868314 3.11332248 0 0 Z " fill="#4FB3F1" transform="translate(299,239)"/>
<path d="M0 0 C3.06261493 1.02087164 4.05779403 1.52810149 6 4 C6.6875 6.6875 6.6875 6.6875 7 9 C5.8225266 8.26708288 4.65823146 7.51296199 3.5 6.75 C2.52546875 6.12351562 2.52546875 6.12351562 1.53125 5.484375 C1.0259375 4.99453125 0.520625 4.5046875 0 4 C0 2.68 0 1.36 0 0 Z " fill="#2994C7" transform="translate(54,278)"/>
<path d="M0 0 C0.33 1.32 0.66 2.64 1 4 C-0.32 4 -1.64 4 -3 4 C-3 4.66 -3 5.32 -3 6 C-4.65 6 -6.3 6 -8 6 C-8 5.34 -8 4.68 -8 4 C-6.865625 3.525625 -5.73125 3.05125 -4.5625 2.5625 C-1.24259834 1.36377917 -1.24259834 1.36377917 0 0 Z " fill="#1F97CC" transform="translate(46,271)"/>
<path d="M0 0 C-1.98 2.31 -3.96 4.62 -6 7 C-7.03864166 3.88407501 -7.09036928 2.9737344 -6 0 C-4 -1 -4 -1 0 0 Z " fill="#86C049" transform="translate(100,242)"/>
<path d="M0 0 C2.475 0.99 2.475 0.99 5 2 C5 2.66 5 3.32 5 4 C3.02 4 1.04 4 -1 4 C-1 1 -1 1 0 0 Z " fill="#35B8F9" transform="translate(352,263)"/>
<path d="M0 0 C0.66 0.99 1.32 1.98 2 3 C-0.67478244 4.6627026 -2.9995144 5.99983813 -6 7 C-5.34 5.35 -4.68 3.7 -4 2 C-2.68 2 -1.36 2 0 2 C0 1.34 0 0.68 0 0 Z " fill="#2994C3" transform="translate(108,253)"/>
<path d="M0 0 C1.27875 -0.061875 2.5575 -0.12375 3.875 -0.1875 C4.95394531 -0.23970703 4.95394531 -0.23970703 6.0546875 -0.29296875 C6.69664062 -0.19628906 7.33859375 -0.09960938 8 0 C8.66 0.99 9.32 1.98 10 3 C9.01 3 8.02 3 7 3 C7 2.34 7 1.68 7 1 C5.68 1 4.36 1 3 1 C3 1.99 3 2.98 3 4 C2.34 4 1.68 4 1 4 C0.67 2.68 0.34 1.36 0 0 Z " fill="#46B1F1" transform="translate(351,237)"/>
<path d="M0 0 C3.53600465 1.91135386 5.78972846 3.62642766 8 7 C7.67 7.66 7.34 8.32 7 9 C6.34 8.67 5.68 8.34 5 8 C5 7.34 5 6.68 5 6 C4.34 6 3.68 6 3 6 C2.67 5.01 2.34 4.02 2 3 C1.34 2.67 0.68 2.34 0 2 C0 1.34 0 0.68 0 0 Z " fill="#3690BA" transform="translate(172,187)"/>
<path d="M0 0 C1.33333333 0.66666667 2.66666667 1.33333333 4 2 C5.0828125 2.433125 5.0828125 2.433125 6.1875 2.875 C8 4 8 4 8.75 6.125 C8.87375 7.053125 8.87375 7.053125 9 8 C5.27885429 5.68462045 2.38770339 3.71420527 0 0 Z " fill="#3290BD" transform="translate(77,301)"/>
<path d="M0 0 C4.875 1.875 4.875 1.875 6 3 C6.04063832 4.66617115 6.042721 6.33388095 6 8 C5.34 8 4.68 8 4 8 C3.71125 7.195625 3.4225 6.39125 3.125 5.5625 C2.26737432 2.8673532 2.26737432 2.8673532 0 2 C0 1.34 0 0.68 0 0 Z " fill="#3592BC" transform="translate(56,258)"/>
<path d="M0 0 C-0.66 0.66 -1.32 1.32 -2 2 C-4.3828125 1.9765625 -4.3828125 1.9765625 -7.125 1.625 C-8.03507812 1.51414063 -8.94515625 1.40328125 -9.8828125 1.2890625 C-10.58148438 1.19367188 -11.28015625 1.09828125 -12 1 C-7.61991557 -1.58464442 -4.88874887 -0.81479148 0 0 Z " fill="#4FAFE6" transform="translate(276,244)"/>
<path d="M0 0 C0.66 0.33 1.32 0.66 2 1 C-1.96 4.465 -1.96 4.465 -6 8 C-6 5 -6 5 -4.6875 3.61328125 C-3.125 2.40885417 -1.5625 1.20442708 0 0 Z " fill="#91C04C" transform="translate(107,189)"/>
<path d="M0 0 C-0.66 1.32 -1.32 2.64 -2 4 C-4.31 4 -6.62 4 -9 4 C-8 2 -8 2 -5.0625 0.875 C-2 0 -2 0 0 0 Z " fill="#93C146" transform="translate(122,183)"/>
<path d="M0 0 C1.32 0.33 2.64 0.66 4 1 C1.03 3.475 1.03 3.475 -2 6 C-2.33 5.01 -2.66 4.02 -3 3 C-2.01 2.67 -1.02 2.34 0 2 C0 1.34 0 0.68 0 0 Z " fill="#2D92C0" transform="translate(140,274)"/>
<path d="M0 0 C3.48539917 0.64544429 6.02819057 2.10134397 9 4 C8.01 4.495 8.01 4.495 7 5 C4.64018187 4.06421005 2.30368736 3.06652192 0 2 C0 1.34 0 0.68 0 0 Z " fill="#1B97D2" transform="translate(7,270)"/>
<path d="M0 0 C2.0625 0.4375 2.0625 0.4375 4 1 C3.54625 1.598125 3.0925 2.19625 2.625 2.8125 C1.36704087 4.50590652 0.17015276 6.24477086 -1 8 C-1.04241723 5.66705225 -1.04092937 3.33297433 -1 1 C-0.67 0.67 -0.34 0.34 0 0 Z " fill="#3297BD" transform="translate(132,214)"/>
<path d="M0 0 C2.97 0.495 2.97 0.495 6 1 C5.01 2.485 5.01 2.485 4 4 C1.525 3.01 1.525 3.01 -1 2 C-0.67 1.34 -0.34 0.68 0 0 Z " fill="#38B7FD" transform="translate(264,264)"/>
<path d="M0 0 C0 0.66 0 1.32 0 2 C-2.31 2.66 -4.62 3.32 -7 4 C-6.67 3.01 -6.34 2.02 -6 1 C-4 0 -4 0 0 0 Z " fill="#37B7FE" transform="translate(479,263)"/>
<path d="M0 0 C1.5 1.25 1.5 1.25 3 3 C3 4.32 3 5.64 3 7 C2.01 7 1.02 7 0 7 C0 4.69 0 2.38 0 0 Z " fill="#1F9AC9" transform="translate(52,253)"/>
</svg>
